# xmcd
#
# Track frame offsets:
# 150
# 13000
# 29225
# 50502
# 71912
# 90437
# 112957
# 131000
# 150712
# 171535
# 182422
# 200777
# 217240
# 235025
# 254192
# 272415
#
# Disc length: 3897 seconds
#
#
# Revision: 10
# Processed by: cddbd v1.5PL3 Copyright (c) Steve Scherf et al.
# Submitted via: FreeRIP 2.60 
#
DISCID=f40f3710
DTITLE=Nas - I Am...
DYEAR=1999
DGENRE=Rap
TTITLE0=Album Intro
TTITLE1=N.Y. State Of Mind Pt. II
TTITLE2=Hate Me Now
TTITLE3=Small World
TTITLE4=Favor For A Favor
TTITLE5=We Will Survive
TTITLE6=Ghetto Prisoners
TTITLE7=You Won't See Me Tonight
TTITLE8=I Want To Talk To You
TTITLE9=Dr. Knockboot
TTITLE10=Life Is What You Make It
TTITLE11=Big Things
TTITLE12=Nas Is Like
TTITLE13=K-I-SS-I-N-G
TTITLE14=Money Is My Bitch
TTITLE15=Undying Love
EXTD=YEAR: 1999
EXTT0=
EXTT1=
EXTT2=
EXTT3=
EXTT4=
EXTT5=
EXTT6=
EXTT7=
EXTT8=
EXTT9=
EXTT10=
EXTT11=
EXTT12=
EXTT13=
EXTT14=
EXTT15=
PLAYORDER=
